<mxfile host="app.diagrams.net" modified="2022-03-31T21:30:53.747Z" agent="5.0 (Windows NT 10.0; Win64; x64) AppleWebKit/537.36 (KHTML, like Gecko) Chrome/99.0.4844.51 Safari/537.36" etag="2PfCy2gBrdYenjhGK3Gj" version="17.2.4" type="github">
  <diagram id="hUP56KalRgrQYvP4O6h5" name="Page-1">
    <mxGraphModel dx="1002" dy="682" grid="1" gridSize="10" guides="1" tooltips="1" connect="1" arrows="1" fold="1" page="1" pageScale="1" pageWidth="827" pageHeight="1169" math="0" shadow="0">
      <root>
        <mxCell id="0" />
        <mxCell id="1" parent="0" />
        <mxCell id="Rs-tZkOV6uGdsQzw7jzl-1" value="1" style="ellipse;whiteSpace=wrap;html=1;aspect=fixed;" vertex="1" parent="1">
          <mxGeometry x="350" y="130" width="50" height="50" as="geometry" />
        </mxCell>
        <mxCell id="Rs-tZkOV6uGdsQzw7jzl-5" value="" style="endArrow=classic;html=1;rounded=0;entryX=0.5;entryY=0;entryDx=0;entryDy=0;" edge="1" parent="1" target="Rs-tZkOV6uGdsQzw7jzl-1">
          <mxGeometry width="50" height="50" relative="1" as="geometry">
            <mxPoint x="375" y="60" as="sourcePoint" />
            <mxPoint x="414" y="30" as="targetPoint" />
          </mxGeometry>
        </mxCell>
        <mxCell id="Rs-tZkOV6uGdsQzw7jzl-7" value="" style="ellipse;whiteSpace=wrap;html=1;aspect=fixed;" vertex="1" parent="1">
          <mxGeometry x="350" y="510" width="50" height="50" as="geometry" />
        </mxCell>
        <mxCell id="Rs-tZkOV6uGdsQzw7jzl-10" value="" style="curved=1;endArrow=classic;html=1;rounded=0;exitX=1;exitY=0.5;exitDx=0;exitDy=0;entryX=1;entryY=0;entryDx=0;entryDy=0;" edge="1" parent="1" source="Rs-tZkOV6uGdsQzw7jzl-1" target="Rs-tZkOV6uGdsQzw7jzl-7">
          <mxGeometry width="50" height="50" relative="1" as="geometry">
            <mxPoint x="390" y="380" as="sourcePoint" />
            <mxPoint x="440" y="330" as="targetPoint" />
            <Array as="points">
              <mxPoint x="510" y="350" />
            </Array>
          </mxGeometry>
        </mxCell>
        <mxCell id="Rs-tZkOV6uGdsQzw7jzl-11" value="" style="endArrow=classic;html=1;rounded=0;entryX=0.5;entryY=0;entryDx=0;entryDy=0;" edge="1" parent="1">
          <mxGeometry width="50" height="50" relative="1" as="geometry">
            <mxPoint x="374.5" y="560" as="sourcePoint" />
            <mxPoint x="374.5" y="630" as="targetPoint" />
          </mxGeometry>
        </mxCell>
        <mxCell id="Rs-tZkOV6uGdsQzw7jzl-13" value="End" style="text;strokeColor=none;fillColor=none;html=1;fontSize=24;fontStyle=1;verticalAlign=middle;align=center;" vertex="1" parent="1">
          <mxGeometry x="325" y="630" width="100" height="40" as="geometry" />
        </mxCell>
        <mxCell id="Rs-tZkOV6uGdsQzw7jzl-14" value="! contain value" style="text;html=1;strokeColor=none;fillColor=none;align=center;verticalAlign=middle;whiteSpace=wrap;rounded=0;" vertex="1" parent="1">
          <mxGeometry x="260" y="170" width="60" height="30" as="geometry" />
        </mxCell>
        <mxCell id="Rs-tZkOV6uGdsQzw7jzl-15" value="2" style="ellipse;whiteSpace=wrap;html=1;aspect=fixed;" vertex="1" parent="1">
          <mxGeometry x="210" y="230" width="50" height="50" as="geometry" />
        </mxCell>
        <mxCell id="Rs-tZkOV6uGdsQzw7jzl-16" value="" style="endArrow=classic;html=1;rounded=0;exitX=0.04;exitY=0.68;exitDx=0;exitDy=0;exitPerimeter=0;" edge="1" parent="1" source="Rs-tZkOV6uGdsQzw7jzl-1" target="Rs-tZkOV6uGdsQzw7jzl-15">
          <mxGeometry width="50" height="50" relative="1" as="geometry">
            <mxPoint x="390" y="380" as="sourcePoint" />
            <mxPoint x="440" y="330" as="targetPoint" />
          </mxGeometry>
        </mxCell>
        <mxCell id="Rs-tZkOV6uGdsQzw7jzl-17" value="contains value" style="text;html=1;strokeColor=none;fillColor=none;align=center;verticalAlign=middle;whiteSpace=wrap;rounded=0;" vertex="1" parent="1">
          <mxGeometry x="460" y="330" width="60" height="30" as="geometry" />
        </mxCell>
        <mxCell id="Rs-tZkOV6uGdsQzw7jzl-20" value="" style="endArrow=classic;html=1;rounded=0;exitX=0.67;exitY=0.96;exitDx=0;exitDy=0;entryX=0.3;entryY=0.02;entryDx=0;entryDy=0;entryPerimeter=0;exitPerimeter=0;" edge="1" parent="1" source="Rs-tZkOV6uGdsQzw7jzl-15" target="Rs-tZkOV6uGdsQzw7jzl-7">
          <mxGeometry width="50" height="50" relative="1" as="geometry">
            <mxPoint x="390" y="370" as="sourcePoint" />
            <mxPoint x="313.88728553876126" y="311.61144936604376" as="targetPoint" />
          </mxGeometry>
        </mxCell>
        <mxCell id="Rs-tZkOV6uGdsQzw7jzl-23" value="value &amp;gt; upper" style="text;html=1;strokeColor=none;fillColor=none;align=center;verticalAlign=middle;whiteSpace=wrap;rounded=0;" vertex="1" parent="1">
          <mxGeometry x="270" y="330" width="70" height="30" as="geometry" />
        </mxCell>
        <mxCell id="Rs-tZkOV6uGdsQzw7jzl-24" value="3" style="ellipse;whiteSpace=wrap;html=1;aspect=fixed;" vertex="1" parent="1">
          <mxGeometry x="100" y="300" width="50" height="50" as="geometry" />
        </mxCell>
        <mxCell id="Rs-tZkOV6uGdsQzw7jzl-26" value="" style="endArrow=classic;html=1;rounded=0;entryX=1;entryY=0;entryDx=0;entryDy=0;exitX=0;exitY=1;exitDx=0;exitDy=0;" edge="1" parent="1" source="Rs-tZkOV6uGdsQzw7jzl-15" target="Rs-tZkOV6uGdsQzw7jzl-24">
          <mxGeometry width="50" height="50" relative="1" as="geometry">
            <mxPoint x="390" y="370" as="sourcePoint" />
            <mxPoint x="440" y="320" as="targetPoint" />
          </mxGeometry>
        </mxCell>
        <mxCell id="Rs-tZkOV6uGdsQzw7jzl-27" value="value &amp;lt;= upper" style="text;html=1;strokeColor=none;fillColor=none;align=center;verticalAlign=middle;whiteSpace=wrap;rounded=0;" vertex="1" parent="1">
          <mxGeometry x="130" y="260" width="70" height="30" as="geometry" />
        </mxCell>
        <mxCell id="Rs-tZkOV6uGdsQzw7jzl-28" value="4" style="ellipse;whiteSpace=wrap;html=1;aspect=fixed;" vertex="1" parent="1">
          <mxGeometry x="200" y="420" width="50" height="50" as="geometry" />
        </mxCell>
        <mxCell id="Rs-tZkOV6uGdsQzw7jzl-29" value="" style="endArrow=classic;html=1;rounded=0;exitX=1;exitY=1;exitDx=0;exitDy=0;entryX=0;entryY=0;entryDx=0;entryDy=0;" edge="1" parent="1" source="Rs-tZkOV6uGdsQzw7jzl-24" target="Rs-tZkOV6uGdsQzw7jzl-28">
          <mxGeometry width="50" height="50" relative="1" as="geometry">
            <mxPoint x="390" y="370" as="sourcePoint" />
            <mxPoint x="440" y="320" as="targetPoint" />
          </mxGeometry>
        </mxCell>
        <mxCell id="Rs-tZkOV6uGdsQzw7jzl-30" value="value &amp;lt; lower" style="text;html=1;strokeColor=none;fillColor=none;align=center;verticalAlign=middle;whiteSpace=wrap;rounded=0;" vertex="1" parent="1">
          <mxGeometry x="110" y="380" width="70" height="30" as="geometry" />
        </mxCell>
        <mxCell id="Rs-tZkOV6uGdsQzw7jzl-31" value="" style="endArrow=classic;html=1;rounded=0;exitX=0.98;exitY=0.68;exitDx=0;exitDy=0;exitPerimeter=0;entryX=0;entryY=0.5;entryDx=0;entryDy=0;" edge="1" parent="1" source="Rs-tZkOV6uGdsQzw7jzl-28" target="Rs-tZkOV6uGdsQzw7jzl-7">
          <mxGeometry width="50" height="50" relative="1" as="geometry">
            <mxPoint x="390" y="370" as="sourcePoint" />
            <mxPoint x="440" y="320" as="targetPoint" />
          </mxGeometry>
        </mxCell>
        <mxCell id="Rs-tZkOV6uGdsQzw7jzl-36" value="return value" style="text;html=1;strokeColor=none;fillColor=none;align=center;verticalAlign=middle;whiteSpace=wrap;rounded=0;" vertex="1" parent="1">
          <mxGeometry x="400" y="520" width="60" height="30" as="geometry" />
        </mxCell>
      </root>
    </mxGraphModel>
  </diagram>
</mxfile>
